<svg xmlns="http://www.w3.org/2000/svg" width="24" height="24" viewBox="0 0 24 24" fill="none"><rect x="6.6" y="3.6" width="10.8" height="2.6" rx="1.2" fill="#E4DCC9" stroke="#33291A" stroke-width="1.8"></rect><path d="M7.6 8 C7 8 6.6 8.5 6.6 9 V17.5 A2.5 2.5 0 0 0 9.1 20 H14.9 A2.5 2.5 0 0 0 17.4 17.5 V9 C17.4 8.5 17 8 16.4 8 Z" fill="#FFFDF6" stroke="#33291A" stroke-width="1.8" stroke-linejoin="round"></path><circle cx="10" cy="13.2" r="2" fill="#F76B15" stroke="#33291A" stroke-width="1.4"></circle><circle cx="14.2" cy="11.4" r="2" fill="#3BA55C" stroke="#33291A" stroke-width="1.4"></circle><circle cx="12.3" cy="16.2" r="1.8" fill="#E93D82" stroke="#33291A" stroke-width="1.4"></circle><path d="M4.2 9.5 C3.5 11 3.5 13.5 4.2 15" stroke="#33291A" stroke-width="1.8" stroke-linecap="round"></path><path d="M2 10.5 C1.6 11.5 1.6 13 2 14" stroke="#33291A" stroke-width="1.8" stroke-linecap="round"></path><path d="M19.8 9.5 C20.5 11 20.5 13.5 19.8 15" stroke="#33291A" stroke-width="1.8" stroke-linecap="round"></path><path d="M22 10.5 C22.4 11.5 22.4 13 22 14" stroke="#33291A" stroke-width="1.8" stroke-linecap="round"></path></svg>